HIERARCHY
ROOT Hips
{
	OFFSET -0.001795 -0.223333 0.028219
	CHANNELS 6 Xposition Yposition Zposition Zrotation Yrotation Xrotation 
	JOINT LeftUpLeg
	{
		OFFSET 0.069520 -0.091406 -0.006815
		CHANNELS 3 Zrotation Yrotation Xrotation
		JOINT LeftLeg
		{
			OFFSET 0.034277 -0.375199 -0.004496
			CHANNELS 3 Zrotation Yrotation Xrotation
			JOINT LeftFoot
			{
				OFFSET -0.013596 -0.397961 -0.043693
				CHANNELS 3 Zrotation Yrotation Xrotation
				JOINT LeftToe
				{
					OFFSET 0.026358 -0.055791 0.119288
					CHANNELS 3 Zrotation Yrotation Xrotation
					End Site
					{
						OFFSET 0.000000 0.000000 0.000000
					}
				}
			}
		}
	}
	JOINT RightUpLeg
	{
		OFFSET -0.067670 -0.090522 -0.004320
		CHANNELS 3 Zrotation Yrotation Xrotation
		JOINT RightLeg
		{
			OFFSET -0.038290 -0.382569 -0.008850
			CHANNELS 3 Zrotation Yrotation Xrotation
			JOINT RightFoot
			{
				OFFSET 0.015774 -0.398415 -0.042312
				CHANNELS 3 Zrotation Yrotation Xrotation
				JOINT RightToe
				{
					OFFSET -0.025372 -0.048144 0.123348
					CHANNELS 3 Zrotation Yrotation Xrotation
					End Site
					{
						OFFSET 0.000000 0.000000 0.000000
					}
				}
			}
		}
	}
	JOINT Spine
	{
		OFFSET -0.002533 0.108963 -0.026696
		CHANNELS 3 Zrotation Yrotation Xrotation
		JOINT Spine1
		{
			OFFSET 0.005487 0.135180 0.001092
			CHANNELS 3 Zrotation Yrotation Xrotation
			JOINT Spine2
			{
				OFFSET 0.001457 0.052922 0.025425
				CHANNELS 3 Zrotation Yrotation Xrotation
				JOINT Neck
				{
					OFFSET -0.002778 0.213870 -0.042857
					CHANNELS 3 Zrotation Yrotation Xrotation
					JOINT Head
					{
						OFFSET 0.005152 0.064970 0.051349
						CHANNELS 3 Zrotation Yrotation Xrotation
						End Site
						{
							OFFSET 0.000000 0.000000 0.000000
						}
					}
				}
				JOINT LeftShoulder
				{
					OFFSET 0.078845 0.121749 -0.034090
					CHANNELS 3 Zrotation Yrotation Xrotation
					JOINT LeftArm
					{
						OFFSET 0.090977 0.030469 -0.008868
						CHANNELS 3 Zrotation Yrotation Xrotation
						JOINT LeftForeArm
						{
							OFFSET 0.259612 -0.012772 -0.027456
							CHANNELS 3 Zrotation Yrotation Xrotation
							JOINT LeftHand
							{
								OFFSET 0.249234 0.008986 -0.001171
								CHANNELS 3 Zrotation Yrotation Xrotation
								End Site
								{
									OFFSET 0.000000 0.000000 0.000000
								}
							}
						}
					}
				}
				JOINT RightShoulder
				{
					OFFSET -0.081759 0.118833 -0.038615
					CHANNELS 3 Zrotation Yrotation Xrotation
					JOINT RightArm
					{
						OFFSET -0.096012 0.032551 -0.009143
						CHANNELS 3 Zrotation Yrotation Xrotation
						JOINT RightForeArm
						{
							OFFSET -0.253742 -0.013329 -0.021401
							CHANNELS 3 Zrotation Yrotation Xrotation
							JOINT RightHand
							{
								OFFSET -0.255298 0.007772 -0.005559
								CHANNELS 3 Zrotation Yrotation Xrotation
								End Site
								{
									OFFSET 0.000000 0.000000 0.000000
								}
							}
						}
					}
				}
			}
		}
	}
}
MOTION
Frames: 11
Frame Time: 0.050000
0.016484 0.976643 0.052123 -0.254795 13.920322 9.982821 8.707220 -0.913644 -13.542908 -3.519085 0.267429 -1.235711 3.970534 14.856122 23.284450 0.000000 0.000000 0.000000 -7.929599 0.323810 -14.309100 3.452161 -0.468700 -1.108789 -5.582386 -13.822125 22.593434 0.000000 0.000000 0.000000 2.108183 -2.289162 23.974611 -6.954646 2.532862 -20.284472 -3.514644 5.418994 28.146696 12.026573 -4.469116 -21.125705 0.000000 0.000000 0.000000 -3.278956 -25.222228 8.247246 -49.456806 -41.700893 8.284161 16.793052 -18.503935 -2.180199 0.000000 0.000000 0.000000 16.046884 8.909691 6.821007 64.988495 42.806980 18.061678 -12.362384 32.558010 -0.796912 0.000000 0.000000 0.000000 
0.017507 0.977015 0.051839 -0.355475 13.875608 9.879689 8.630035 -0.901955 -13.277163 -3.490980 0.266868 -1.463439 4.081143 15.016953 23.501083 0.000000 0.000000 0.000000 -7.815702 0.338399 -14.047760 3.142955 -0.432224 -1.515826 -5.586504 -13.839905 22.864905 0.000000 0.000000 0.000000 2.062334 -2.254434 23.814006 -7.283212 2.594056 -20.594243 -3.577086 5.217245 28.489188 11.409879 -4.093191 -21.139584 0.000000 0.000000 0.000000 -3.185458 -24.803854 8.110454 -50.202902 -42.067594 8.616295 16.709814 -17.570340 -2.033466 0.000000 0.000000 0.000000 15.760979 8.653193 6.587634 66.148479 42.821658 18.611659 -12.521365 32.772903 -0.814434 0.000000 0.000000 0.000000 
0.018366 0.977027 0.051877 -0.409344 13.907577 9.753112 8.515843 -0.900871 -13.191188 -3.302462 0.256028 -1.564740 4.216861 15.228937 23.737569 0.000000 0.000000 0.000000 -7.683521 0.350207 -13.876153 3.048009 -0.420753 -1.489685 -5.795960 -14.156960 23.024238 0.000000 0.000000 0.000000 1.980033 -2.206066 23.589899 -7.400430 2.633331 -20.440465 -3.798490 4.907996 28.643134 11.046351 -3.943271 -20.920788 0.000000 0.000000 0.000000 -3.042492 -24.478856 8.007254 -50.930876 -42.309356 8.927949 16.857318 -17.032357 -1.974576 0.000000 0.000000 0.000000 15.227258 8.409318 6.290189 67.418984 42.662255 19.152825 -12.684392 33.301054 -0.845195 0.000000 0.000000 0.000000 
0.019201 0.977022 0.052312 -0.556407 13.902924 9.571900 8.493942 -0.886613 -12.924367 -3.347883 0.258972 -1.652077 4.248992 15.258981 23.716328 0.000000 0.000000 0.000000 -7.394371 0.382903 -13.659017 2.930000 -0.406430 -1.495754 -5.776692 -14.127109 22.877495 0.000000 0.000000 0.000000 1.980090 -2.180957 23.392002 -7.609978 2.684607 -20.452866 -3.916416 4.492708 28.821965 10.429059 -3.686713 -20.516025 0.000000 0.000000 0.000000 -3.075344 -23.968953 7.863565 -51.826873 -42.534396 9.309197 16.932897 -16.555112 -1.904013 0.000000 0.000000 0.000000 15.071334 8.070569 5.998870 68.761624 42.395624 19.572509 -12.574213 33.357935 -0.801511 0.000000 0.000000 0.000000 
0.020114 0.976804 0.052982 -0.708759 13.861464 9.550136 8.579069 -0.880951 -12.893427 -3.440552 0.264776 -1.764631 4.534947 15.615504 23.882044 0.000000 0.000000 0.000000 -7.173728 0.411605 -13.643242 2.827496 -0.390121 -1.184388 -5.614010 -13.881959 22.751597 0.000000 0.000000 0.000000 2.081105 -2.156140 23.000833 -7.770972 2.729393 -20.324703 -4.040309 4.108406 28.777191 10.167820 -3.654406 -20.140856 0.000000 0.000000 0.000000 -3.308387 -23.755938 7.837152 -52.521536 -42.662133 9.639268 16.868880 -16.139120 -1.822622 0.000000 0.000000 0.000000 15.174841 7.852729 5.820929 69.592730 42.091145 19.689662 -12.643669 33.319864 -0.808477 0.000000 0.000000 0.000000 
0.021250 0.976485 0.053767 -0.851721 13.817212 9.574401 8.622644 -0.871162 -12.708351 -3.539093 0.270736 -1.996563 4.600647 15.687920 23.931922 0.000000 0.000000 0.000000 -7.043577 0.430306 -13.569524 2.873493 -0.394473 -1.063385 -5.643490 -13.935520 22.573164 0.000000 0.000000 0.000000 2.158433 -2.102020 22.420696 -7.784303 2.740048 -20.192884 -4.022079 3.662475 28.771036 9.836669 -3.487348 -20.229146 0.000000 0.000000 0.000000 -3.762843 -23.281640 7.738271 -53.407264 -42.757179 10.022135 16.877946 -15.681389 -1.744938 0.000000 0.000000 0.000000 15.605944 7.523998 5.638657 70.293005 42.034276 19.864239 -12.272195 32.259739 -0.699223 0.000000 0.000000 0.000000 
0.022356 0.975620 0.054499 -0.960499 13.732791 9.580029 8.630973 -0.861774 -12.532317 -3.576669 0.273439 -2.205763 4.863120 15.989497 23.981079 0.000000 0.000000 0.000000 -6.944163 0.446156 -13.622439 2.963331 -0.402890 -0.772686 -5.762144 -14.135617 22.459326 0.000000 0.000000 0.000000 2.397494 -2.081479 21.803457 -7.914550 2.772816 -20.126966 -3.978434 3.097708 29.016053 9.443499 -3.355810 -20.070640 0.000000 0.000000 0.000000 -4.128350 -22.698689 7.609093 -54.132553 -42.858836 10.353889 16.657239 -15.193147 -1.627653 0.000000 0.000000 0.000000 15.570332 7.353083 5.419850 71.015460 42.008594 20.104190 -12.176797 31.015316 -0.684044 0.000000 0.000000 0.000000 
0.023380 0.974923 0.055057 -1.070064 13.594551 9.538032 8.590807 -0.852398 -12.369315 -3.468314 0.268826 -2.308629 4.964362 16.070996 23.845996 0.000000 0.000000 0.000000 -6.907101 0.453825 -13.573076 3.048185 -0.412759 -0.707737 -5.586257 -13.884305 22.306817 0.000000 0.000000 0.000000 2.603367 -2.046753 21.169162 -7.991262 2.806552 -19.848163 -3.903304 2.821113 29.026127 9.046675 -3.179395 -19.883655 0.000000 0.000000 0.000000 -4.247718 -22.052367 7.412493 -55.023543 -42.968495 10.704887 16.432026 -15.048629 -1.563006 0.000000 0.000000 0.000000 15.600271 7.156672 5.249460 71.736830 42.008091 20.406961 -11.897307 29.869504 -0.618833 0.000000 0.000000 0.000000 
0.024221 0.974162 0.055254 -1.116162 13.594040 9.520266 8.505740 -0.846531 -12.169688 -3.365381 0.263508 -2.436222 4.980115 16.060286 23.662935 0.000000 0.000000 0.000000 -6.902369 0.453575 -13.447324 3.049255 -0.412327 -0.614134 -5.582541 -13.878110 22.199107 0.000000 0.000000 0.000000 2.803645 -2.043548 20.764191 -7.909763 2.782603 -19.913786 -3.725139 2.820785 29.216830 8.992638 -3.171866 -19.760049 0.000000 0.000000 0.000000 -4.521210 -21.673486 7.287631 -55.357678 -42.840391 10.716275 16.224710 -15.076551 -1.534826 0.000000 0.000000 0.000000 15.940873 7.077653 5.270085 71.678034 42.145051 20.415178 -11.862576 28.586774 -0.598856 0.000000 0.000000 0.000000 
0.024929 0.973629 0.055078 -1.231196 13.537223 9.422615 8.554926 -0.836715 -12.034229 -3.410387 0.266214 -2.495608 5.062098 16.101288 23.359444 0.000000 0.000000 0.000000 -6.895199 0.454762 -13.264267 3.068926 -0.414693 -0.620184 -5.337913 -13.502520 21.976662 0.000000 0.000000 0.000000 2.915111 -2.015455 20.345015 -7.714969 2.762250 -19.439377 -3.470402 2.915613 29.049780 9.027766 -3.196244 -19.694852 0.000000 0.000000 0.000000 -4.598881 -21.403698 7.183056 -55.571600 -42.581332 10.639802 15.932208 -15.455727 -1.540607 0.000000 0.000000 0.000000 16.087486 7.179417 5.352079 71.427225 41.924642 20.123317 -11.985604 28.083569 -0.626200 0.000000 0.000000 0.000000 
0.025519 0.973401 0.054637 -1.186906 13.345399 9.486330 8.495632 -0.832958 -11.989655 -3.395178 0.267419 -2.677103 5.055426 16.053923 23.268936 0.000000 0.000000 0.000000 -6.961731 0.454469 -13.215398 3.131312 -0.421741 -0.675977 -5.161739 -13.256110 21.778589 0.000000 0.000000 0.000000 2.931522 -1.974077 20.033629 -7.620543 2.738765 -19.379627 -3.123023 3.134339 29.183867 9.015443 -3.158560 -19.756590 0.000000 0.000000 0.000000 -4.744288 -21.241514 7.119305 -55.530379 -42.183963 10.387785 15.633368 -15.818634 -1.542740 0.000000 0.000000 0.000000 16.134149 7.374005 5.488133 70.984924 41.795655 19.799985 -11.793225 28.095270 -0.595007 0.000000 0.000000 0.000000 
